<svg id="Layer_1" data-name="Layer 1" xmlns="http://www.w3.org/2000/svg" viewBox="0 0 961.53 170.14"><defs><style>.cls-1{fill:#1c3557;}.cls-2{fill:#97d8e8;}</style></defs><circle class="cls-1" cx="89.29" cy="151.76" r="16.72"/><circle class="cls-1" cx="89.29" cy="85.06" r="16.72"/><circle class="cls-1" cx="155.18" cy="19.53" r="16.72"/><circle class="cls-1" cx="22.94" cy="19.53" r="16.72"/><path class="cls-1" d="M376.7,8V163.35a5.16,5.16,0,0,1-5.15,5.15h-44a5.16,5.16,0,0,1-4.3-2.31L276.66,95.65a3.77,3.77,0,0,0-6.91,2.08v65.62a5.15,5.15,0,0,1-5.15,5.15H222.94a5.15,5.15,0,0,1-5.14-5.15V8a5.14,5.14,0,0,1,5.14-5.15h44a5.15,5.15,0,0,1,4.32,2.34l46.6,71.78a3.74,3.74,0,0,0,6.88-2V8a5.14,5.14,0,0,1,5.14-5.15h41.66A5.15,5.15,0,0,1,376.7,8Z"/><path class="cls-1" d="M480.84,170.14c-47,0-85.42-35.34-85.42-85.19S433.8,0,480.84,0c47.27,0,84.95,35.1,84.95,85S527.65,170.14,480.84,170.14Zm0-48.45c20.83,0,32.3-14.74,32.3-36.74,0-22.47-11.47-37-32.3-37-21.29,0-32.53,14.51-32.53,37C448.31,107,459.55,121.69,480.84,121.69Z"/><path class="cls-1" d="M580.22,2.81H709.57a5.07,5.07,0,0,1,5.06,5.07V38.93A5.07,5.07,0,0,1,709.57,44H675.71a5.07,5.07,0,0,0-5.07,5.07V163.43a5.07,5.07,0,0,1-5.07,5.07H623.75a5.07,5.07,0,0,1-5.07-5.07V49.07A5.06,5.06,0,0,0,613.62,44h-33.4a5.07,5.07,0,0,1-5.06-5.07v-31A5.07,5.07,0,0,1,580.22,2.81Z"/><path class="cls-2" d="M833.35,143.46H781.27a2.16,2.16,0,0,0-2.06,1.49L772,167a2.17,2.17,0,0,1-2.06,1.5H720.08a2.18,2.18,0,0,1-2-2.92l59-161.35a2.17,2.17,0,0,1,2-1.42H836a2.17,2.17,0,0,1,2,1.43l58.79,161.34a2.17,2.17,0,0,1-2,2.92H844.69a2.17,2.17,0,0,1-2.06-1.5L835.41,145A2.16,2.16,0,0,0,833.35,143.46ZM805.24,64.63l-12,36.9a2.17,2.17,0,0,0,2.06,2.84h24a2.17,2.17,0,0,0,2.06-2.84l-12-36.9A2.18,2.18,0,0,0,805.24,64.63Z"/><path class="cls-2" d="M915.52,2.81H955.6a5.93,5.93,0,0,1,5.93,5.93V162.56a5.93,5.93,0,0,1-5.93,5.94H915.52a5.94,5.94,0,0,1-5.94-5.94V8.74A5.94,5.94,0,0,1,915.52,2.81Z"/></svg>